<svg width="122" height="122" viewBox="0 0 122 122" fill="none" xmlns="http://www.w3.org/2000/svg">
<rect width="122" height="122" fill="#1E1E1E"/>
<path d="M60.5 76C66.8514 76 72 70.8514 72 64.5C72 58.1485 66.8514 53 60.5 53C54.1485 53 49 58.1485 49 64.5C49 70.8514 54.1485 76 60.5 76Z" stroke="white" stroke-width="4" stroke-linecap="round" stroke-linejoin="round"/>
<path d="M33 75.8V51.575C33 48.0047 33 46.2195 33.6661 44.8558C34.252 43.6563 35.1868 42.681 36.3367 42.0698C37.644 41.375 39.3552 41.375 42.7778 41.375H46.0003C46.3759 41.375 46.5638 41.375 46.737 41.3543C47.6412 41.2463 48.4521 40.7234 48.9491 39.9282C49.0443 39.7757 49.1283 39.6005 49.2963 39.25C49.6323 38.549 49.8003 38.1985 49.9908 37.8937C50.9847 36.3031 52.6065 35.2575 54.4149 35.0414C54.7614 35 55.1369 35 55.8882 35H65.1118C65.8631 35 66.2386 35 66.5851 35.0414C68.3934 35.2575 70.0153 36.3031 71.0093 37.8937C71.1996 38.1985 71.3677 38.5491 71.7038 39.25C71.8716 39.6005 71.9556 39.7757 72.0509 39.9282C72.5481 40.7234 73.3587 41.2463 74.2628 41.3543C74.4364 41.375 74.624 41.375 74.9998 41.375H78.2222C81.6447 41.375 83.3562 41.375 84.6633 42.0698C85.8131 42.681 86.7481 43.6563 87.3339 44.8558C88 46.2195 88 48.0047 88 51.575V75.8C88 79.3703 88 81.1556 87.3339 82.5193C86.7481 83.7187 85.8131 84.6941 84.6633 85.3051C83.3562 86 81.6447 86 78.2222 86H42.7778C39.3552 86 37.644 86 36.3367 85.3051C35.1868 84.6941 34.252 83.7187 33.6661 82.5193C33 81.1556 33 79.3703 33 75.8Z" stroke="white" stroke-width="4" stroke-linecap="round" stroke-linejoin="round"/>
</svg>
