<svg width="108" height="108" viewBox="0 0 108 108" fill="none" xmlns="http://www.w3.org/2000/svg">
<path d="M53.9998 107.333C83.4548 107.333 107.333 83.4548 107.333 53.9998C107.333 24.5446 83.4548 0.666504 53.9998 0.666504C24.5446 0.666504 0.666504 24.5446 0.666504 53.9998C0.666504 83.4548 24.5446 107.333 53.9998 107.333Z" fill="#DADADA"/>
<path d="M89.9457 93.3603C80.4524 102.054 67.8657 107.334 53.9991 107.334C40.1322 107.334 27.5456 102.054 18.0522 93.3603C18.5856 88.347 21.7856 83.4403 27.4922 79.6003C42.1056 69.8936 65.9991 69.8936 80.5057 79.6003C86.2124 83.4403 89.4124 88.347 89.9457 93.3603Z" fill="white"/>
<path d="M54.6664 63.5998C54.231 63.5375 53.6712 63.5375 53.1737 63.5998C42.2273 63.2261 33.52 54.2563 33.52 43.2309C33.52 31.9564 42.6005 22.7998 53.92 22.7998C65.1773 22.7998 74.32 31.9564 74.32 43.2309C74.2578 54.2563 65.6127 63.2261 54.6664 63.5998Z" fill="white"/>
</svg>
