<svg width="95" height="25" viewBox="0 0 95 25" fill="none" xmlns="http://www.w3.org/2000/svg">
<path d="M17.76 19.49V24.658H0.28V0.603999H6.36V19.49H17.76ZM19.6704 12.612C19.6704 9.54667 20.0124 7.11467 20.6964 5.316C21.4057 3.51733 22.6091 2.22533 24.3064 1.44C26.0291 0.654666 28.4231 0.261999 31.4884 0.261999C33.7937 0.261999 35.7064 0.477333 37.2264 0.908C38.7464 1.33867 39.9497 2.03533 40.8364 2.998C41.7231 3.96067 42.3437 5.24 42.6984 6.836C43.0784 8.40667 43.2684 10.332 43.2684 12.612C43.2684 14.9173 43.0784 16.868 42.6984 18.464C42.3437 20.0347 41.7231 21.3013 40.8364 22.264C39.9497 23.2267 38.7464 23.9233 37.2264 24.354C35.7064 24.7847 33.7937 25 31.4884 25C29.1831 25 27.2704 24.7847 25.7504 24.354C24.2304 23.9233 23.0271 23.2267 22.1404 22.264C21.2537 21.3013 20.6204 20.0347 20.2404 18.464C19.8604 16.868 19.6704 14.9173 19.6704 12.612ZM31.4884 19.68C33.1097 19.68 34.3257 19.4773 35.1364 19.072C35.9471 18.6667 36.4917 17.9573 36.7704 16.944C37.0491 15.9053 37.1884 14.4613 37.1884 12.612C37.1884 10.788 37.0491 9.36933 36.7704 8.356C36.4917 7.34267 35.9471 6.63333 35.1364 6.228C34.3257 5.79733 33.1097 5.582 31.4884 5.582C29.8924 5.582 28.6764 5.79733 27.8404 6.228C27.0297 6.63333 26.4724 7.34267 26.1684 8.356C25.8897 9.36933 25.7504 10.788 25.7504 12.612C25.7504 14.4613 25.8897 15.9053 26.1684 16.944C26.4724 17.9573 27.0297 18.6667 27.8404 19.072C28.6764 19.4773 29.8924 19.68 31.4884 19.68ZM62.4649 17.552C62.4649 16.716 62.5029 15.956 62.5789 15.272L62.5029 15.158C61.7936 15.2593 61.0209 15.3353 60.1849 15.386C59.3489 15.4113 58.5763 15.4113 57.8669 15.386V10.446L67.7849 10.408V23.328C66.6196 23.86 65.2896 24.278 63.7949 24.582C62.3256 24.8607 60.4509 25 58.1709 25C55.1309 25 52.7496 24.5947 51.0269 23.784C49.3043 22.948 48.0883 21.618 47.3789 19.794C46.6696 17.9447 46.3149 15.4873 46.3149 12.422C46.3149 9.93933 46.5936 7.9 47.1509 6.304C47.7336 4.708 48.5696 3.47933 49.6589 2.618C50.7736 1.73133 52.1289 1.12333 53.7249 0.793999C55.3209 0.439332 57.1449 0.261999 59.1969 0.261999C60.4129 0.261999 61.6289 0.312666 62.8449 0.413999C64.0863 0.515333 65.3149 0.705333 66.5309 0.983999V6L66.4169 6.076C65.3529 5.82267 64.2889 5.64533 63.2249 5.544C62.1863 5.44267 61.1349 5.392 60.0709 5.392C58.5256 5.392 57.1703 5.55667 56.0049 5.886C54.8649 6.19 53.9783 6.836 53.3449 7.824C52.7116 8.812 52.3949 10.3447 52.3949 12.422C52.3949 14.474 52.5596 16.0447 52.8889 17.134C53.2436 18.198 53.8896 18.9327 54.8269 19.338C55.7896 19.718 57.1576 19.908 58.9309 19.908C59.1589 19.908 59.5136 19.908 59.9949 19.908C60.4763 19.8827 60.9576 19.8573 61.4389 19.832C61.9203 19.8067 62.2623 19.7687 62.4649 19.718V17.552ZM71.2153 12.612C71.2153 9.54667 71.5573 7.11467 72.2413 5.316C72.9506 3.51733 74.154 2.22533 75.8513 1.44C77.574 0.654666 79.968 0.261999 83.0333 0.261999C85.3386 0.261999 87.2513 0.477333 88.7713 0.908C90.2913 1.33867 91.4946 2.03533 92.3813 2.998C93.268 3.96067 93.8886 5.24 94.2433 6.836C94.6233 8.40667 94.8133 10.332 94.8133 12.612C94.8133 14.9173 94.6233 16.868 94.2433 18.464C93.8886 20.0347 93.268 21.3013 92.3813 22.264C91.4946 23.2267 90.2913 23.9233 88.7713 24.354C87.2513 24.7847 85.3386 25 83.0333 25C80.728 25 78.8153 24.7847 77.2953 24.354C75.7753 23.9233 74.572 23.2267 73.6853 22.264C72.7986 21.3013 72.1653 20.0347 71.7853 18.464C71.4053 16.868 71.2153 14.9173 71.2153 12.612ZM83.0333 19.68C84.6546 19.68 85.8706 19.4773 86.6813 19.072C87.492 18.6667 88.0366 17.9573 88.3153 16.944C88.594 15.9053 88.7333 14.4613 88.7333 12.612C88.7333 10.788 88.594 9.36933 88.3153 8.356C88.0366 7.34267 87.492 6.63333 86.6813 6.228C85.8706 5.79733 84.6546 5.582 83.0333 5.582C81.4373 5.582 80.2213 5.79733 79.3853 6.228C78.5746 6.63333 78.0173 7.34267 77.7133 8.356C77.4346 9.36933 77.2953 10.788 77.2953 12.612C77.2953 14.4613 77.4346 15.9053 77.7133 16.944C78.0173 17.9573 78.5746 18.6667 79.3853 19.072C80.2213 19.4773 81.4373 19.68 83.0333 19.68Z" fill="white"/>
</svg>
